REM MD5 4976a656351358b435c6d5e6acf55a01
FILE "Galaxian^3 (Europe).bin" BINARY
  TRACK 01 MODE2/2352
    INDEX 01 00:00:00
  TRACK 02 AUDIO
    INDEX 00 55:14:12
    INDEX 01 55:16:12
  TRACK 03 AUDIO
    INDEX 00 56:08:45
    INDEX 01 56:10:45
  TRACK 04 AUDIO
    INDEX 00 56:27:68
    INDEX 01 56:29:68
REM LEADOUT 59:29:69
